# File created by Blade
# Date/Time:  Thu Jan 22 16:10:14 2015
# Frame Rate: 120.000 fps
#------------------------------------------------------
:FULLY-SPECIFIED
:DEGREES
1142
root 3.674559 33.473901 -4.531513 54.786424 17.668700 21.804287
RightUpLeg -38.242311 -49.154631 -25.398976
RightLeg -7.931279 -0.000000 0.000000
RightFoot 1.618562 -32.060851 34.415115
RightToeBase 13.581825 -0.000000 -0.000000
LeftUpLeg -69.790984 -7.349159 3.020122
LeftLeg 10.915350 -0.000000 -0.000000
LeftFoot 3.232489 12.726251 -31.089861
LeftToeBase 10.445442 -0.000000 -0.000000
Spine 77.095311 15.967878 20.393722
RightShoulder 20.028440 -1.479832 -43.942330
RightArm 36.998948 23.154020 18.425390
RightForeArm -8.315076 -0.000000 16.036258
RightHand 6.531894 -0.000000 -1.134080
RightHandThumb1 -24.326973 -0.000000 -32.862282
LeftShoulder -37.721105 47.572629 -1.985074
LeftArm 14.279219 -28.723172 -70.065192
LeftForeArm 12.832318 -0.000000 1.131132
LeftHand -28.166598 -0.000000 11.749772
LeftHandThumb1 -26.253704 0.000000 33.147579
Head 29.640592 32.292872 -12.118961
1143
root 3.676365 33.474124 -4.529848 54.782271 17.621900 21.809538
RightUpLeg -38.248075 -49.115240 -25.459140
RightLeg -7.902760 -0.000000 0.000000
RightFoot 1.601865 -32.070268 34.411284
RightToeBase 13.605878 -0.000000 -0.000000
LeftUpLeg -69.807164 -7.366476 3.051096
LeftLeg 10.956417 -0.000000 -0.000000
LeftFoot 3.166413 12.788464 -31.127734
LeftToeBase 10.434723 -0.000000 -0.000000
Spine 77.087282 15.990060 20.505906
RightShoulder 20.035325 -1.627447 -43.949361
RightArm 36.942233 23.169664 18.382000
RightForeArm -8.284452 -0.000000 16.019456
RightHand 6.543911 -0.000000 -1.205984
RightHandThumb1 -24.326973 -0.000000 -32.862282
LeftShoulder -37.731449 47.616961 -1.929703
LeftArm 14.215456 -28.638660 -70.026657
LeftForeArm 13.026666 0.000000 1.118139
LeftHand -28.310903 -0.000000 11.855508
LeftHandThumb1 -26.253704 0.000000 33.147579
Head 29.810608 32.288699 -11.912567
1144
root 3.678756 33.474622 -4.526896 54.772388 17.579913 21.820591
RightUpLeg -38.224623 -49.075060 -25.538097
RightLeg -7.887792 -0.000000 0.000000
RightFoot 1.579532 -32.092414 34.434185
RightToeBase 13.597154 -0.000000 -0.000000
LeftUpLeg -69.814594 -7.387901 3.072058
LeftLeg 10.997440 -0.000000 -0.000000
LeftFoot 3.123090 12.838971 -31.125223
LeftToeBase 10.380214 -0.000000 -0.000000
Spine 77.083492 15.992702 20.598666
RightShoulder 20.046974 -1.704979 -43.936322
RightArm 36.872663 23.119641 18.316330
RightForeArm -8.217595 -0.000000 15.977151
RightHand 6.602013 0.000000 -1.319119
RightHandThumb1 -24.326973 -0.000000 -32.862282
LeftShoulder -37.750494 47.672956 -1.903805
LeftArm 14.124110 -28.556409 -69.986834
LeftForeArm 13.032622 0.000000 1.125380
LeftHand -28.327992 -0.000000 11.744529
LeftHandThumb1 -26.253704 0.000000 33.147579
Head 29.989705 32.333444 -11.676753
1145
root 3.681265 33.473755 -4.525374 54.765767 17.538821 21.832145
RightUpLeg -38.197758 -49.034506 -25.622927
RightLeg -7.870056 -0.000000 0.000000
RightFoot 1.638189 -32.116053 34.339769
RightToeBase 13.494487 -0.000000 -0.000000
LeftUpLeg -69.840027 -7.418178 3.112591
LeftLeg 11.058316 -0.000000 -0.000000
LeftFoot 3.055373 12.901139 -31.160699
LeftToeBase 10.391773 -0.000000 -0.000000
Spine 77.069862 16.003032 20.683790
RightShoulder 20.073295 -1.767119 -43.904816
RightArm 36.772081 23.119064 18.304731
RightForeArm -8.214513 -0.000000 16.005220
RightHand 6.623326 -0.000000 -1.392211
RightHandThumb1 -24.326973 -0.000000 -32.862282
LeftShoulder -37.786192 47.748410 -1.890534
LeftArm 14.036712 -28.424304 -69.928654
LeftForeArm 13.081441 0.000000 1.117460
LeftHand -28.366492 -0.000000 11.572921
LeftHandThumb1 -26.253704 0.000000 33.147579
Head 30.173472 32.325682 -11.432320
1146
root 3.683594 33.473321 -4.522266 54.749536 17.497996 21.833884
RightUpLeg -38.169201 -48.994654 -25.691702
RightLeg -7.870743 -0.000000 0.000000
RightFoot 1.548434 -32.126723 34.462873
RightToeBase 13.591080 -0.000000 -0.000000
LeftUpLeg -69.858101 -7.431714 3.133930
LeftLeg 11.133935 -0.000000 -0.000000
LeftFoot 2.985816 12.935702 -31.151423
LeftToeBase 10.370092 -0.000000 -0.000000
Spine 77.080864 16.018651 20.766119
RightShoulder 20.081878 -1.817134 -43.865274
RightArm 36.680909 23.128091 18.298500
RightForeArm -8.241683 -0.000000 16.037340
RightHand 6.632942 0.000000 -1.459610
RightHandThumb1 -24.326973 -0.000000 -32.862282
LeftShoulder -37.822605 47.758669 -1.841293
LeftArm 13.933138 -28.220634 -69.824419
LeftForeArm 13.144946 -0.000000 1.015918
LeftHand -28.319328 -0.000000 11.690320
LeftHandThumb1 -26.253704 0.000000 33.147579
Head 30.369307 32.372071 -11.174185
1147
root 3.686873 33.471892 -4.520019 54.742479 17.454876 21.837448
RightUpLeg -38.171967 -48.978567 -25.725403
RightLeg -7.877080 -0.000000 0.000000
RightFoot 1.525078 -32.128165 34.509617
RightToeBase 13.638610 -0.000000 -0.000000
LeftUpLeg -69.892150 -7.452207 3.165443
LeftLeg 11.214993 -0.000000 -0.000000
LeftFoot 2.893990 12.976962 -31.167138
LeftToeBase 10.399925 -0.000000 -0.000000
Spine 77.084963 16.042007 20.849563
RightShoulder 20.090004 -1.891698 -43.845395
RightArm 36.573448 23.160130 18.321110
RightForeArm -8.253471 -0.000000 16.103066
RightHand 6.676748 -0.000000 -1.574629
RightHandThumb1 -24.326973 -0.000000 -32.862282
LeftShoulder -37.913462 47.798057 -1.843290
LeftArm 13.867386 -28.008342 -69.730917
LeftForeArm 13.189566 -0.000000 0.970519
LeftHand -28.291595 -0.000000 11.603495
LeftHandThumb1 -26.253704 0.000000 33.147579
Head 30.587177 32.432734 -10.872970
1148
root 3.689453 33.470483 -4.517786 54.731434 17.410197 21.844869
RightUpLeg -38.171949 -48.974672 -25.752221
RightLeg -7.894351 -0.000000 0.000000
RightFoot 1.570330 -32.110275 34.461089
RightToeBase 13.611169 -0.000000 -0.000000
LeftUpLeg -69.931318 -7.475514 3.201062
LeftLeg 11.318044 -0.000000 -0.000000
LeftFoot 2.822535 13.004003 -31.156172
LeftToeBase 10.339033 -0.000000 -0.000000
Spine 77.094767 16.072463 20.921370
RightShoulder 20.113615 -2.009568 -43.842146
RightArm 36.452172 23.287190 18.398629
RightForeArm -8.255388 -0.000000 16.211030
RightHand 6.744951 0.000000 -1.709695
RightHandThumb1 -24.326973 -0.000000 -32.862282
LeftShoulder -37.985029 47.875457 -1.833071
LeftArm 13.812455 -27.703737 -69.635010
LeftForeArm 13.291916 0.000000 0.894940
LeftHand -28.376148 0.000000 11.536364
LeftHandThumb1 -26.253704 0.000000 33.147579
Head 30.819875 32.461500 -10.564275
1149
root 3.691734 33.468969 -4.514927 54.726055 17.369596 21.857652
RightUpLeg -38.205627 -49.016030 -25.723842
RightLeg -7.921651 -0.000000 0.000000
RightFoot 1.716989 -32.078900 34.303306
RightToeBase 13.452244 -0.000000 -0.000000
LeftUpLeg -69.974235 -7.502701 3.229295
LeftLeg 11.420705 -0.000000 -0.000000
LeftFoot 2.746633 13.038549 -31.159796
LeftToeBase 10.350561 -0.000000 -0.000000
Spine 77.107948 16.112444 20.990598
RightShoulder 20.122876 -2.083015 -43.792133
RightArm 36.290283 23.335640 18.415589
RightForeArm -8.228994 0.000000 16.349124
RightHand 6.870845 -0.000000 -1.844387
RightHandThumb1 -24.326973 -0.000000 -32.862282
LeftShoulder -38.091215 47.975419 -1.824194
LeftArm 13.785128 -27.487623 -69.605492
LeftForeArm 13.396987 0.000000 0.889531
LeftHand -28.380381 -0.000000 11.519489
LeftHandThumb1 -26.253704 0.000000 33.147579
Head 31.056811 32.467182 -10.217933
1150
root 3.693661 33.467050 -4.511467 54.714602 17.315889 21.869087
RightUpLeg -38.257885 -49.069815 -25.674559
RightLeg -7.963356 -0.000000 0.000000
RightFoot 1.786808 -32.017104 34.260055
RightToeBase 13.442762 -0.000000 -0.000000
LeftUpLeg -70.004103 -7.513796 3.234741
LeftLeg 11.520902 -0.000000 -0.000000
LeftFoot 2.668143 13.055711 -31.148138
LeftToeBase 10.278169 -0.000000 -0.000000
Spine 77.159132 16.175661 21.046809
RightShoulder 20.083940 -2.157461 -43.740482
RightArm 36.144503 23.343184 18.404301
RightForeArm -8.165115 -0.000000 16.477558
RightHand 6.914944 -0.000000 -1.878173
RightHandThumb1 -24.326973 -0.000000 -32.862282
LeftShoulder -38.218888 48.039696 -1.816933
LeftArm 13.732558 -27.119305 -69.506998
LeftForeArm 13.623793 -0.000000 0.888363
LeftHand -28.453258 0.000000 10.923664
LeftHandThumb1 -26.253704 0.000000 33.147579
Head 31.358069 32.745312 -9.754871
1151
root 3.696391 33.465438 -4.508808 54.721059 17.271687 21.894841
RightUpLeg -38.353652 -49.181673 -25.567812
RightLeg -8.013521 -0.000000 0.000000
RightFoot 1.881982 -31.926858 34.198572
RightToeBase 13.476011 -0.000000 -0.000000
LeftUpLeg -70.049010 -7.537698 3.231984
LeftLeg 11.619585 -0.000000 -0.000000
LeftFoot 2.610833 13.068615 -31.104763
LeftToeBase 10.218216 -0.000000 -0.000000
Spine 77.176964 16.217067 21.076140
RightShoulder 20.063150 -2.263929 -43.720614
RightArm 36.029767 23.346342 18.373583
RightForeArm -8.152480 -0.000000 16.560984
RightHand 6.990327 0.000000 -2.055522
RightHandThumb1 -24.326973 -0.000000 -32.862282
LeftShoulder -38.319167 48.107613 -1.805372
LeftArm 13.650319 -26.815911 -69.415054
LeftForeArm 13.529788 -0.000000 0.856758
LeftHand -28.417121 -0.000000 11.225791
LeftHandThumb1 -26.253704 0.000000 33.147579
Head 31.604875 32.789773 -9.399924
1152
root 3.699677 33.463300 -4.504079 54.720134 17.227061 21.914236
RightUpLeg -38.423422 -49.282327 -25.473781
RightLeg -8.086571 -0.000000 0.000000
RightFoot 1.922532 -31.837884 34.226334
RightToeBase 13.555196 -0.000000 -0.000000
LeftUpLeg -70.086297 -7.545911 3.208440
LeftLeg 11.728539 -0.000000 -0.000000
LeftFoot 2.551572 13.056944 -31.090710
LeftToeBase 10.178601 -0.000000 -0.000000
Spine 77.218721 16.264155 21.102089
RightShoulder 20.025005 -2.346127 -43.704504
RightArm 35.909804 23.302047 18.330491
RightForeArm -8.120842 -0.000000 16.650269
RightHand 7.031483 -0.000000 -2.268928
RightHandThumb1 -24.326973 -0.000000 -32.862282
LeftShoulder -38.462547 48.195767 -1.851385
LeftArm 13.576491 -26.640083 -69.351009
LeftForeArm 13.605618 -0.000000 0.894725
LeftHand -28.350512 -0.000000 11.126081
LeftHandThumb1 -26.253704 0.000000 33.147579
Head 31.839742 32.821038 -9.061376
1153
root 3.701959 33.460832 -4.499290 54.742886 17.188705 21.930228
RightUpLeg -38.509119 -49.372843 -25.369066
RightLeg -8.152166 -0.000000 0.000000
RightFoot 2.083749 -31.772102 34.075672
RightToeBase 13.462809 -0.000000 -0.000000
LeftUpLeg -70.146387 -7.555906 3.202270
LeftLeg 11.829489 -0.000000 -0.000000
LeftFoot 2.484405 13.058509 -31.069040
LeftToeBase 10.143465 -0.000000 -0.000000
Spine 77.238744 16.319061 21.098552
RightShoulder 19.972807 -2.455451 -43.689166
RightArm 35.831724 23.248854 18.263063
RightForeArm -7.981815 -0.000000 16.718293
RightHand 7.253719 0.000000 -2.827473
RightHandThumb1 -24.326973 -0.000000 -32.862282
LeftShoulder -38.613945 48.258232 -1.912743
LeftArm 13.512656 -26.712928 -69.334691
LeftForeArm 13.732572 -0.000000 0.892015
LeftHand -28.358621 -0.000000 11.209282
LeftHandThumb1 -26.253704 0.000000 33.147579
Head 32.103170 32.912698 -8.757770
1154
root 3.703962 33.457328 -4.495563 54.751306 17.148215 21.949798
RightUpLeg -38.520087 -49.418127 -25.349816
RightLeg -8.229435 -0.000000 0.000000
RightFoot 2.159796 -31.731896 34.021812
RightToeBase 13.445540 -0.000000 -0.000000
LeftUpLeg -70.199087 -7.572878 3.206702
LeftLeg 11.939253 -0.000000 -0.000000
LeftFoot 2.410881 13.061841 -31.063284
LeftToeBase 10.113393 -0.000000 -0.000000
Spine 77.259779 16.369478 21.092871
RightShoulder 19.949360 -2.560320 -43.688286
RightArm 35.730574 23.198040 18.195897
RightForeArm -7.854948 -0.000000 16.782547
RightHand 7.268635 0.000000 -3.097621
RightHandThumb1 -24.326973 -0.000000 -32.862282
LeftShoulder -38.684402 48.334302 -1.876907
LeftArm 13.367319 -26.776088 -69.335650
LeftForeArm 13.756810 -0.000000 0.914656
LeftHand -28.366824 -0.000000 10.965084
LeftHandThumb1 -26.253704 0.000000 33.147579
Head 32.385857 32.974743 -8.379999
